<svg width="400" height="400" viewBox="0 0 400 400" xmlns="http://www.w3.org/2000/svg">
  <defs>
    <pattern id="bg-grid" width="20" height="20" patternUnits="userSpaceOnUse">
      <rect width="10" height="10" fill="#10181A"/>
      <rect x="10" width="10" height="10" fill="#192225"/>
      <rect y="10" width="10" height="10" fill="#192225"/>
      <rect x="10" y="10" width="10" height="10" fill="#10181A"/>
    </pattern>
  </defs>
  
  <rect width="100%" height="100%" fill="url(#bg-grid)"/>

  <g fill="#FF4A40">
    <circle cx="200" cy="200" r="165" />
    
    <path d="M 200 20 C 270 15, 330 40, 360 100 C 390 160, 385 230, 350 290 C 315 350, 250 385, 180 380 C 110 375, 50 340, 25 270 C 0 200, 20 130, 60 80 C 100 30, 150 25, 200 20 Z" />
    <path d="M 200 25 C 280 20, 340 50, 370 120 C 400 190, 380 260, 330 320 C 280 380, 200 395, 140 370 C 80 345, 30 280, 15 210 C 0 140, 40 70, 100 40 C 140 20, 170 30, 200 25 Z" transform="rotate(73 200 200)"/>
    <path d="M 200 25 C 280 20, 340 50, 370 120 C 400 190, 380 260, 330 320 C 280 380, 200 395, 140 370 C 80 345, 30 280, 15 210 C 0 140, 40 70, 100 40 C 140 20, 170 30, 200 25 Z" transform="rotate(210 200 200)"/>

    <path d="M 25 150 Q 10 180, 20 210 Q 5 170, 25 150 Z" />
    <path d="M 375 170 Q 390 200, 380 240 Q 395 190, 375 170 Z" />
    <path d="M 150 15 Q 180 5, 220 10 Q 180 0, 150 15 Z" />
    <path d="M 260 385 Q 230 395, 190 390 Q 230 400, 260 385 Z" />
    <path d="M 40 280 Q 25 310, 45 330 Q 30 315, 40 280 Z" />
    <path d="M 360 80 Q 380 60, 390 90 Q 375 75, 360 80 Z" />
  </g>

  <path d="M 110 90
           Q 100 200, 110 310
           Q 135 320, 160 310
           Q 155 265, 155 235
           Q 165 220, 185 235
           Q 195 265, 225 310
           Q 265 320, 290 310
           Q 260 265, 235 225
           Q 220 205, 235 185
           Q 260 145, 290 90
           Q 260 80, 225 90
           Q 195 135, 185 175
           Q 165 190, 155 175
           Q 155 135, 160 90
           Q 135 80, 110 90 Z"
        fill="#FFFFFF"
        stroke="#FFFFFF"
        stroke-width="12"
        stroke-linejoin="round"
        stroke-linecap="round"/>

  <path d="M 100 150 Q 120 155, 112 170 Q 105 160, 100 150 Z" fill="#FF4A40"/>
  <path d="M 295 120 Q 280 125, 282 140 Q 295 130, 295 120 Z" fill="#FF4A40"/>
</svg>
